<svg viewBox="0 0 12 14" xmlns="http://www.w3.org/2000/svg">
  <path
    fill="currentColor"
    d="M11.3334 4.17025L7.3334 0.663585C6.96671 0.335615 6.49202 0.154297 6.00006 0.154297C5.50811 0.154297 5.03341 0.335615 4.66673 0.663585L0.66673 4.17025C0.454975 4.35963 0.285997 4.59196 0.171044 4.85175C0.0560923 5.11154 -0.00219504 5.39284 6.31961e-05 5.67692V11.5036C6.31961e-05 12.034 0.210777 12.5427 0.58585 12.9178C0.960922 13.2929 1.46963 13.5036 2.00006 13.5036H10.0001C10.5305 13.5036 11.0392 13.2929 11.4143 12.9178C11.7893 12.5427 12.0001 12.034 12.0001 11.5036V5.67025C12.0014 5.38729 11.9426 5.10728 11.8277 4.84871C11.7128 4.59013 11.5443 4.35889 11.3334 4.17025ZM7.3334 12.1703H4.66673V8.83692C4.66673 8.66011 4.73697 8.49054 4.86199 8.36551C4.98702 8.24049 5.15658 8.17025 5.3334 8.17025H6.66673C6.84354 8.17025 7.01311 8.24049 7.13813 8.36551C7.26316 8.49054 7.3334 8.66011 7.3334 8.83692V12.1703ZM10.6667 11.5036C10.6667 11.6804 10.5965 11.85 10.4715 11.975C10.3464 12.1 10.1769 12.1703 10.0001 12.1703H8.66673V8.83692C8.66673 8.30648 8.45602 7.79778 8.08094 7.4227C7.70587 7.04763 7.19716 6.83692 6.66673 6.83692H5.3334C4.80296 6.83692 4.29426 7.04763 3.91918 7.4227C3.54411 7.79778 3.3334 8.30648 3.3334 8.83692V12.1703H2.00006C1.82325 12.1703 1.65368 12.1 1.52866 11.975C1.40363 11.85 1.3334 11.6804 1.3334 11.5036V5.67025C1.33352 5.57559 1.35379 5.48205 1.39287 5.39584C1.43196 5.30963 1.48895 5.23272 1.56006 5.17025L5.56006 1.67025C5.68172 1.56337 5.83812 1.50443 6.00006 1.50443C6.162 1.50443 6.3184 1.56337 6.44006 1.67025L10.4401 5.17025C10.5112 5.23272 10.5682 5.30963 10.6073 5.39584C10.6463 5.48205 10.6666 5.57559 10.6667 5.67025V11.5036Z" />
</svg>