<svg viewBox="0 0 12 14" xmlns="http://www.w3.org/2000/svg">
  <path
    fill="currentColor"
    d="M11.66 3.85024C11.6563 3.83266 11.6563 3.81448 11.66 3.79691C11.6568 3.78152 11.6568 3.76563 11.66 3.75024V3.69024L11.62 3.59024C11.6038 3.56295 11.5836 3.53824 11.56 3.51691L11.5 3.46357H11.4667L8.84005 1.80357L6.36005 0.27024C6.30267 0.224727 6.23701 0.190767 6.16671 0.17024H6.11338C6.05379 0.160294 5.99297 0.160294 5.93338 0.17024H5.86671C5.78927 0.187368 5.71503 0.216618 5.64671 0.256907L0.666712 3.35691L0.606712 3.40357L0.546712 3.45691L0.480045 3.50357L0.446712 3.54357L0.406712 3.64357V3.70357V3.74357C0.400237 3.78778 0.400237 3.8327 0.406712 3.87691V9.69691C0.406485 9.8102 0.435136 9.92169 0.48996 10.0208C0.544783 10.12 0.62397 10.2035 0.720045 10.2636L5.72005 13.3569L5.82004 13.3969H5.87338C5.98617 13.4327 6.10726 13.4327 6.22005 13.3969H6.27338L6.37338 13.3569L11.3334 10.3102C11.4295 10.2502 11.5086 10.1667 11.5635 10.0675C11.6183 9.96835 11.6469 9.85687 11.6467 9.74357V3.92357C11.6467 3.92357 11.66 3.87691 11.66 3.85024ZM6.00005 1.61691L7.18671 2.35024L3.46005 4.65691L2.26671 3.92357L6.00005 1.61691ZM5.33338 11.6169L1.66671 9.37691V5.11691L5.33338 7.38357V11.6169ZM6.00005 6.21024L4.72671 5.44357L8.45338 3.13024L9.73338 3.92357L6.00005 6.21024ZM10.3334 9.35691L6.66671 11.6369V7.38357L10.3334 5.11691V9.35691Z" />
</svg>