<svg viewBox="0 0 12 15" xmlns="http://www.w3.org/2000/svg">
  <path fill-rule="evenodd" clip-rule="evenodd" fill="currentColor"
    d="M5.98958 0.336914C4.38831 0.336914 3.08058 1.48642 2.85468 3.00099H1.58092C1.1656 3.00099 0.845094 3.3255 0.805372 3.71494L0 12.5639V12.6296C0 13.8863 1.14352 14.8369 2.49592 14.8369H9.48324C10.838 14.8369 11.9792 13.857 11.9792 12.6296V12.5639L11.1741 3.71765L11.1738 3.71494C11.1341 3.3255 10.8136 3.00099 10.3983 3.00099H9.12449C8.89859 1.48642 7.59086 0.336914 5.98958 0.336914ZM5.9896 1.89717C6.71242 1.89717 7.33424 2.37472 7.5201 3.02824H4.45909C4.64496 2.37472 5.26678 1.89717 5.9896 1.89717ZM1.58145 12.6668L2.30855 4.56125H2.82816V5.31707C2.82816 5.76721 3.20305 6.08358 3.60498 6.08358C4.01564 6.08358 4.3818 5.73163 4.3818 5.31707V4.56125H7.56956V5.31707C7.56956 5.76721 7.94444 6.08358 8.34638 6.08358C8.75704 6.08358 9.1232 5.73163 9.1232 5.31707V4.56125H9.64281L10.3706 12.6746C10.3774 12.8175 10.3058 12.9676 10.1469 13.0922C9.98648 13.218 9.7508 13.304 9.4832 13.304H2.49588C2.22873 13.304 1.99211 13.2182 1.82717 13.091C1.66547 12.9662 1.58491 12.8135 1.58145 12.6668Z" />
</svg>